<svg width="47" height="47" viewBox="0 0 47 47" fill="none" xmlns="http://www.w3.org/2000/svg">
<path d="M40.6649 8.76458C41.8907 10.3425 42.7578 12.1687 43.2058 14.1159C43.6538 16.0632 43.672 18.0847 43.2591 20.0397C42.8461 21.9946 42.012 23.8361 40.8148 25.4358C39.6175 27.0356 38.086 28.3551 36.3267 29.3025C34.8395 30.1069 33.0497 29.6119 31.8534 28.4179L18.5847 15.1469C17.3884 13.9506 16.8934 12.1608 17.6955 10.6735C18.6429 8.91397 19.9625 7.38209 21.5624 6.18462C23.1623 4.98715 25.004 4.15288 26.9593 3.73992C28.9146 3.32696 30.9364 3.34525 32.8839 3.7935C34.8314 4.24176 36.6577 5.1092 38.2357 6.33542L43.4836 1.0875C43.6421 0.92327 43.8317 0.792244 44.0413 0.702068C44.251 0.611893 44.4765 0.564374 44.7047 0.562284C44.9329 0.560194 45.1593 0.603575 45.3705 0.689895C45.5818 0.776216 45.7738 0.903748 45.9352 1.06505C46.0967 1.22635 46.2244 1.41819 46.3109 1.62938C46.3974 1.84056 46.441 2.06687 46.4391 2.29508C46.4373 2.5233 46.39 2.74885 46.3 2.95859C46.21 3.16832 46.0792 3.35804 45.9151 3.51667L40.6672 8.76458H40.6649ZM36.0426 25.409C37.2138 24.518 38.1807 23.3867 38.8785 22.0911C39.5762 20.7955 39.9886 19.3655 40.0879 17.8973C40.1872 16.4291 39.9711 14.9567 39.4542 13.5789C38.9373 12.2011 38.1315 10.9499 37.0909 9.90937C36.0504 8.86883 34.7992 8.06302 33.4214 7.5461C32.0436 7.02918 30.5712 6.81312 29.103 6.91242C27.6348 7.01172 26.2048 7.4241 24.9092 8.12184C23.6136 8.81958 22.4823 9.78652 21.5913 10.9577C20.9817 11.7575 21.1651 12.8667 21.8778 13.5771L33.4209 25.1225C34.1313 25.8329 35.2428 26.0185 36.0426 25.409ZM3.51696 45.9125L8.76487 40.6646C10.3428 41.8904 12.169 42.7575 14.1162 43.2055C16.0635 43.6535 18.085 43.6717 20.0399 43.2588C21.9949 42.8458 23.8364 42.0117 25.4361 40.8145C27.0358 39.6172 28.3554 38.0857 29.3028 36.3265C30.1072 34.8392 29.6122 33.0494 28.4159 31.8531L15.1472 18.5844C13.9509 17.3881 12.1611 16.8931 10.6738 17.6952C8.91426 18.6426 7.38238 19.9622 6.18491 21.5621C4.98744 23.162 4.15316 25.0038 3.74021 26.959C3.32725 28.9143 3.34553 30.9361 3.79379 32.8836C4.24205 34.8311 5.10949 36.6574 6.33571 38.2354L1.08779 43.4833C0.923558 43.6418 0.792532 43.8314 0.702357 44.0411C0.612181 44.2507 0.564662 44.4762 0.562572 44.7044C0.560482 44.9326 0.603863 45.159 0.690184 45.3702C0.776505 45.5815 0.904036 45.7735 1.06534 45.9349C1.22664 46.0964 1.41848 46.2241 1.62967 46.3106C1.84085 46.3971 2.06715 46.4407 2.29537 46.4389C2.52358 46.437 2.74914 46.3897 2.95888 46.2997C3.16861 46.2097 3.35833 46.0789 3.51696 45.9148V45.9125ZM13.5774 21.8775L25.1228 33.4229C25.8332 34.1333 26.0165 35.2425 25.4092 36.0423C24.5183 37.2135 23.387 38.1804 22.0914 38.8782C20.7958 39.5759 19.3658 39.9883 17.8976 40.0876C16.4294 40.1869 14.957 39.9708 13.5792 39.4539C12.2014 38.937 10.9502 38.1312 9.90966 37.0906C8.86911 36.0501 8.06331 34.7989 7.54639 33.4211C7.02947 32.0433 6.8134 30.5709 6.91271 29.1027C7.01201 27.6345 7.42439 26.2045 8.12213 24.9089C8.81987 23.6133 9.78681 22.482 10.958 21.591C11.7578 20.9815 12.867 21.1648 13.5774 21.8775Z" fill="black"/>
</svg>
